<svg width="188" height="82" viewBox="0 0 188 82" fill="none" xmlns="http://www.w3.org/2000/svg">
<path d="M100.989 63.1484C102.804 61.5655 102.85 59.187 102.897 56.9227C103.1 46.7101 100.688 31.6261 87.2222 32.4048L87.4342 18.8318C87.4427 18.3705 88.8249 18.7641 89.0538 19.0942C90.7964 21.6124 92.7552 24.0799 94.82 26.4881C95.227 26.9621 96.4184 27.1864 96.9187 26.9578C100.569 25.2818 91.8733 13.4102 87.6547 13.1816C87.3027 11.8273 87.2943 9.76616 87.6165 8.11133C102.24 13.2113 109.316 37.0942 110.079 50.5573C110.448 57.1089 110.279 63.6732 107.51 69.7127C104.36 76.5818 96.482 81.3093 88.9351 81.1104C81.9605 80.9241 77.1398 75.219 75.8339 69.0694C74.7952 64.1642 75.5414 59.8684 78.5135 55.8815C81.0532 52.4703 84.9454 49.9266 89.4566 50.3541C96.0496 50.9805 100.675 56.5925 100.993 63.1484H100.989ZM90.6989 64.6847C89.9357 65.1884 88.562 64.8498 88.1931 64.0457C87.3324 62.158 89.7534 61.5528 89.8424 60.7275C89.8679 60.4736 88.9563 59.8853 88.6595 59.8938C87.0144 59.9572 84.6656 61.8279 85.2803 63.9949C85.717 65.5439 87.1204 66.7586 88.3585 67.0083C90.1689 67.3723 91.6698 66.8051 92.9375 65.7428C94.926 64.0795 95.5662 62.0353 95.1677 59.4409C94.7225 56.5418 92.5305 54.1928 89.1301 54.4256C85.1871 54.6922 81.3415 57.9215 80.3197 61.7687C79.5226 64.7736 80.1289 68.0283 82.1513 70.1444C84.0677 72.1505 87.0017 73.4753 89.9781 72.7939C90.966 72.5653 91.7164 71.2745 91.2161 70.4915C88.7231 70.8597 86.4166 71.0925 84.4408 69.281C82.9484 67.9098 81.4772 65.8529 82.0156 63.2754C82.7322 59.8345 86.0393 56.9734 89.6813 57.3628C91.4069 57.549 92.3524 59.3182 92.5517 60.8587C92.7213 62.1538 92.1065 63.7536 90.7031 64.6805L90.6989 64.6847Z" fill="#2F7625"/>
<path d="M9.33816 37.029L19.5 37.4908C22.5899 37.6335 28.3091 35.3624 26.7536 32.7136C25.3079 30.2494 23.1056 34.1031 19.5465 33.9393L9.76932 33.4902C6.50604 33.339 3.47103 33.2551 0.190845 33.3432C0.0978497 26.8155 5.75786 21.1357 11.1262 17.8949C15.3152 15.3677 19.3224 12.786 23.1268 9.76767C27.3284 6.43452 25.7475 1.85458 27.7765 0.9982C28.3345 0.763116 29.5561 1.51455 29.9323 2.14843C33.4027 7.99195 35.3471 14.3056 36.2306 21.0559C37.2113 28.5198 38.0355 38.5151 35.7487 45.8069L25.7137 45.7397L25.9208 41.8902C21.2035 40.8323 21.5036 42.7172 19.0519 45.6516L3.38226 45.7859C1.30256 43.2378 -0.0331889 40.6308 0.00062741 37.0626C3.21741 36.6974 6.18056 36.8779 9.32548 37.0206L9.33816 37.029ZM28.3514 28.247C29.3997 25.9423 29.349 18.1132 26.7198 17.9746C22.8943 20.2499 20.1678 23.8853 19.4239 28.5366L28.3556 28.247H28.3514Z" fill="#2F7625"/>
<path d="M67.2379 37.5448C69.3205 38.3786 71.4925 38.9987 73.6304 38.3953C77.2263 37.3856 75.3221 24.0452 74.9736 20.3456C74.5358 15.7285 74.1532 11.2244 72.5593 6.62401C68.7765 7.85581 66.6216 10.6001 65.3847 14.1824C65.1254 14.9282 62.7537 14.5092 62.6517 13.7299C62.1459 9.88787 61.2066 3.06267 63.5358 0.0166787C69.9369 -0.150914 78.8712 0.883969 83.3255 5.89079C82.0759 12.1587 83.5593 28.7965 84.9492 34.8172C85.2807 36.2418 86.6493 37.7543 87.7077 38.0601C89.1826 38.4833 90.8742 37.9219 92.2216 37.2389C94.6443 39.0364 96.5315 41.986 96.863 45.4594L67.5651 45.8071C67.8669 42.7402 67.7777 40.3017 67.2421 37.5532L67.2379 37.5448Z" fill="#2F7625"/>
<path d="M186.469 44.7639L180.374 44.747C180.039 41.2214 180.307 33.634 175.829 33.5284C170.481 33.4017 171.101 41.0948 171.092 45.3297L165.087 44.7893C164.174 44.709 164.119 42.5346 164.106 41.6901L163.665 12.5647C165.999 11.9736 168.104 11.8511 170.541 11.9694L170.579 15.1276C170.583 15.5372 170.846 16.3901 171.165 16.559C171.547 16.7617 172.217 15.9257 172.595 15.4063C174.687 12.5436 179.466 12.0707 182.238 14.3085C184.958 16.5041 186.215 19.5695 186.826 23.0318C187.216 25.2569 189.457 44.7682 186.473 44.7597L186.469 44.7639Z" fill="#2F7625"/>
<path d="M156.713 40.9614C154.39 43.6035 151.345 44.8906 148.312 44.8525C145.28 44.8144 142.154 43.2647 139.992 40.5888C134.403 33.6745 134.696 23.1402 140.689 16.6027C145.458 11.3991 152.937 11.7082 157.337 17.204C162.765 23.9827 162.616 34.2462 156.713 40.9572V40.9614ZM149.145 24.8719C146.66 24.9058 146.554 29.9486 147.263 31.8158C147.476 32.3705 148.542 33.0394 149.06 33.0225C151.684 32.9251 151.863 24.8338 149.14 24.8719H149.145Z" fill="#2F7625"/>
<path d="M126.957 45.7603C122.515 45.9797 118.484 45.4649 114.623 43.5701C110.761 41.6753 111.993 36.1976 112.159 31.9818C115.525 34.0539 122.329 39.0082 124.561 34.5265C125.141 33.3575 125.124 31.1589 123.625 30.4204C117.667 27.4832 109.389 27.5718 110.291 17.8024C110.694 13.4515 114.5 9.72099 119.073 9.20614C122.854 8.77991 126.356 9.35384 130.069 10.5861C130.268 12.2361 129.811 18.6928 128.689 18.9629C127.461 19.2583 124.662 15.8274 121.161 17.4986C119.945 18.0767 119.759 20.0179 120.216 21.3135C121.372 24.6051 128.278 21.9887 133.757 29.5848C135.735 32.3279 135.79 35.552 135.146 38.755C134.325 42.8485 131.475 45.5366 126.961 45.7603H126.957Z" fill="#2F7625"/>
<path d="M40.4054 38.1088C42.6866 39.068 45.4909 39.877 47.2974 37.9921C50.0269 35.1438 48.2292 18.6591 47.038 13.9885C43.5525 15.4063 41.0384 23.5924 40.0846 19.7809L38.1726 12.1286L46.2513 6.24442C49.8862 3.59635 53.8596 1.64053 58.3693 0.477051C55.7057 5.58136 56.1892 13.9968 56.4221 19.4431C56.6463 24.6475 56.7826 29.6308 57.7803 34.7393C58.0616 36.1739 59.2791 37.7919 60.356 38.2131C61.9427 38.8345 63.8327 38.3966 65.4502 37.4458C66.4172 40.1064 66.6677 42.8545 65.7667 45.807L38.7264 45.3358L40.4054 38.1172V38.1088Z" fill="#2F7625"/>
</svg>
